<?xml version="1.0" encoding="UTF-8"?>
<svg id="Livello_2" data-name="Livello 2" xmlns="http://www.w3.org/2000/svg" viewBox="0 0 1195.56 248.25">
  <defs>
    <style>
      .cls-1 {
        fill: #2e4756;
      }

      .cls-1, .cls-2, .cls-3, .cls-4 {
        stroke: #000;
        stroke-linecap: round;
        stroke-linejoin: round;
        stroke-width: 2px;
      }

      .cls-2 {
        fill: #3c7a89;
      }

      .cls-5 {
        letter-spacing: -.07em;
      }

      .cls-6 {
        letter-spacing: -.1em;
      }

      .cls-3 {
        fill: #c33149;
      }

      .cls-7 {
        letter-spacing: -.06em;
      }

      .cls-8 {
        letter-spacing: -.05em;
      }

      .cls-9 {
        letter-spacing: -.06em;
      }

      .cls-10 {
        letter-spacing: -.06em;
      }

      .cls-11 {
        fill: #000;
        font-family: DINNextLTArabic-Bold, 'DIN Next LT Arabic';
        font-size: 166.91px;
        font-weight: 700;
      }

      .cls-12 {
        letter-spacing: -.05em;
      }

      .cls-4 {
        fill: #8d273a;
      }
    </style>
  </defs>
  <g id="Livello_2-2" data-name="Livello 2">
    <path class="cls-2" d="M122.44,137.49v56.09L1,123.47l24.29-42.07c4,2.31,8.02,4.63,12.04,6.96,16.12,9.31,32.42,18.72,48.68,28.1,12.2,7.04,24.37,14.07,36.43,21.03Z"/>
    <polygon class="cls-1" points="243.89 123.47 243.89 151.51 122.44 221.63 122.44 193.58 243.89 123.47"/>
    <polygon class="cls-2" points="122.44 193.58 122.44 221.63 1 151.51 1 123.47 122.44 193.58"/>
    <path class="cls-2" d="M104.11,94.31l.13.08h.01s0-.16,0-.16l-.15.08ZM103.71,94.09l-8.07-4.7h-.01s-.02-.01-.03-.02,0,0-.01,0c-.01,0-.03-.02-.05-.03,0,0,0,0-.01,0h0l-.1.06,8.62,4.97.07-.04-.39-.22ZM121.88,84.07s-.01,0-.03.01c0,0,.06.04.13.08l.04.03v-.2s-.08.04-.15.08ZM104.11,94.31l.13.08h.01s0-.16,0-.16l-.15.08ZM103.71,94.09l-8.07-4.7v-.14l-.12.08h0l-.1.06,8.62,4.97.07-.04-.39-.22ZM95.6,89.36s0,0-.01,0c-.01,0-.03-.02-.05-.03,0,0,0,0-.01,0h0l-.1.06s.16,0,.21,0h0s-.02-.01-.03-.02Z"/>
    <path class="cls-2" d="M219.6,81.4c-32.34,18.66-64.83,37.42-97.16,56.09-12.06-6.96-24.23-13.99-36.43-21.03-16.26-9.39-32.56-18.8-48.68-28.1-4.03-2.33-8.04-4.65-12.04-6.96l70.35-40.93v15.97l-42.09,24.11c.88.51,1.77,1.03,2.66,1.54,1.77,1.04,3.56,2.07,5.35,3.12.9.52,1.79,1.04,2.7,1.57,1.21.7,2.41,1.4,3.62,2.11.28.16.57.33.85.5.32.18.63.36.95.55.32.18.64.37.97.57.15.09.31.18.47.27,9.98,5.8,20.12,11.71,30.09,17.5,2.89,1.69,5.77,3.36,8.61,5.02,4.27,2.49,8.5,4.95,12.65,7.36,1.47-.85,2.98-1.72,4.51-2.61,1.02-.59,2.05-1.18,3.1-1.79,4.34-2.5,8.86-5.12,13.47-7.77,1.47-.85,2.96-1.7,4.44-2.56h0c1.49-.85,2.98-1.72,4.47-2.59,0,0,0,0,0,0,2.24-1.3,4.5-2.59,6.74-3.9,4.5-2.6,8.98-5.19,13.37-7.71,1.46-.84,2.91-1.67,4.34-2.51,5.03-2.91,9.9-5.72,14.48-8.36l-43.04-24.85v-16.06l71.23,41.45Z"/>
    <path class="cls-2" d="M191.41,80.86c-4.58,2.64-9.45,5.45-14.48,8.36-1.44.83-2.89,1.67-4.34,2.51-4.39,2.53-8.87,5.12-13.37,7.71-2.24,1.3-4.49,2.59-6.74,3.9h0c-1.49.86-2.98,1.72-4.47,2.59h0c-1.49.85-2.97,1.72-4.44,2.56-4.61,2.66-9.13,5.27-13.47,7.77-1.04.6-2.07,1.2-3.1,1.79-1.53.89-3.04,1.76-4.51,2.61-4.15-2.41-8.37-4.87-12.65-7.36-2.85-1.66-5.72-3.34-8.61-5.02-9.97-5.79-20.11-11.7-30.09-17.5-.16-.09-.32-.18-.47-.27-.33-.2-.65-.39-.97-.57-.32-.19-.64-.37-.95-.55-.29-.17-.57-.34-.85-.5-1.21-.71-2.42-1.42-3.62-2.11-.9-.53-1.8-1.05-2.7-1.57-1.79-1.04-3.58-2.09-5.35-3.12-.89-.51-1.77-1.03-2.66-1.54l42.09-24.11v14.2l-16.24,9.31c.07.04,5.16,3.01,9.63,5.61l.72.42c2.31,1.35,4.37,2.54,5.33,3.1.09.05.18.1.25.15.08.04.15.08.2.11l-.1.06,8.62,4.97.07-.04.13.08s0,0,.01,0h0s10.21,5.95,10.21,5.95l1.07.62,2.65,1.54.67.39,3.18,1.85c1.93-1.11,4.04-2.33,6.24-3.6.73-.42,1.46-.85,2.21-1.28.75-.43,1.51-.88,2.28-1.32.73-.42,1.46-.84,2.21-1.27.46-.27.92-.53,1.38-.8.46-.27.92-.53,1.39-.8.71-.41,1.42-.82,2.13-1.23h0c2.83-1.63,5.68-3.28,8.5-4.9,5.77-3.33,11.38-6.57,16.29-9.41l-16.29-9.4v-14.71l43.04,24.85Z"/>
    <path class="cls-2" d="M71.13,90.77c-1.11-.64-2.19-1.28-3.25-1.89,1.07.62,2.15,1.25,3.25,1.89Z"/>
    <path class="cls-2" d="M121.88,84.07s-.01,0-.03.01c0,0,.06.04.13.08l.04.03v-.2s-.08.04-.15.08ZM104.11,94.31l.13.08h.01s0-.16,0-.16l-.15.08ZM103.71,94.09l-8.07-4.7v-.14l-.12.08h0l-.1.06,8.62,4.97.07-.04-.39-.22Z"/>
    <path class="cls-2" d="M121.88,84.07s-.01,0-.03.01c0,0,.06.04.13.08l.04.03v-.2s-.08.04-.15.08ZM104.11,94.31l.13.08h.01s0-.16,0-.16l-.15.08ZM95.52,89.32s.01,0,.01,0c.02,0,.04.02.05.03t.01,0s.02,0,.03.01h0s.01,0,.01,0v-.14l-.12.08Z"/>
    <path class="cls-3" d="M95.64,70.63v18.61l-.12.08h0s-.12-.07-.2-.11c-.07-.05-.15-.1-.25-.15-.96-.55-3.01-1.74-5.33-3.1l-.72-.42c-4.46-2.6-9.56-5.57-9.63-5.61l16.24-9.31Z"/>
    <path class="cls-4" d="M139.87,94.44c-.71.41-1.42.82-2.13,1.23-.46.27-.92.53-1.39.8-.46.27-.92.53-1.38.8-.74.43-1.48.85-2.21,1.27-.77.45-1.53.89-2.28,1.32-.75.43-1.49.85-2.21,1.28-2.2,1.28-4.3,2.49-6.24,3.6l-3.18-1.85-.67-.39-2.65-1.54-1.07-.62-10.21-5.94v-.18l17.01-9.8s.06-.04.1-.06c.1-.06.24-.13.36-.21.05-.03.09-.06.13-.08,0,0,.06.04.13.08.01,0,.03.01.04.02h0s.13.08.13.08l9.12,5.26.78.45,7.03,4.05s.22.12.39.22c.04.02.08.04.11.06.09.05.16.08.16.08.06.04.11.06.11.06Z"/>
    <path class="cls-4" d="M164.67,80.13c-4.91,2.84-10.52,6.08-16.29,9.41v-18.81l16.29,9.4Z"/>
    <path class="cls-4" d="M148.38,25.97v63.57c-2.82,1.63-5.67,3.27-8.5,4.9h0s-.05-.03-.11-.06V30.95l8.62-4.97Z"/>
    <polygon class="cls-4" points="147.32 6.35 147.32 25.36 130.93 15.8 147.32 6.35"/>
    <path class="cls-1" d="M243.89,123.47l-121.44,70.11v-56.09c32.33-18.67,64.82-37.43,97.16-56.09l24.29,42.07Z"/>
    <path class="cls-2" d="M95.64,89.38s-.22,0-.22,0"/>
    <polygon class="cls-3" points="104.25 31.17 104.25 94.23 104.11 94.31 103.71 94.09 95.64 89.38 95.64 26.2 104.25 31.17"/>
    <path class="cls-4" d="M122.03,20.93v63.06s-.08.04-.15.08c-.2.11-.54.31-.62.36,0,0-17.01,9.8-17.01,9.8V31.17l17.78-10.24Z"/>
    <path class="cls-3" d="M139.76,30.95v63.43s-.07-.04-.16-.08c-.04-.02-.08-.04-.11-.06-.18-.1-.39-.22-.39-.22l-7.03-4.05-.78-.45-9.12-5.26-.13-.08V20.93l.17-.1c.14.08.36.21.64.37l.41.24c1.4.81,3.83,2.21,6.4,3.69l.78.45c.15.09.29.18.44.26l.82.47c.82.47,1.63.94,2.4,1.38l.76.44.72.41c.12.07.23.13.35.2l1.29.74.55.31c.37.22.69.41.97.56l.38.22c.39.22.62.36.64.37Z"/>
    <path class="cls-3" d="M113.47,15.8c-3.47,2.02-13.47,7.86-16.79,9.79V6.12l16.79,9.68Z"/>
    <path class="cls-3" d="M148.38,25.97l-8.62,4.97s-.26-.15-.64-.37l-.38-.22c-.27-.15-.6-.34-.97-.56l-.55-.31c-.4-.23-.83-.48-1.29-.74-.12-.07-.23-.13-.35-.2l-.72-.41-.76-.44c-.77-.44-1.58-.91-2.4-1.38l-.82-.47c-.15-.08-.29-.17-.44-.26l-.78-.45c-2.57-1.48-5-2.89-6.4-3.69l-.41-.24c-.29-.16-.5-.29-.64-.37-.1-.06-.15-.09-.17-.1v.2l-17.78,10.24-8.61-4.97c.34-.2.69-.41,1.04-.61,1.53-.89,3.09-1.8,4.67-2.72.6-.35,1.2-.7,1.8-1.04,1.6-.94,3.22-1.88,4.82-2.81.25-.15.49-.29.74-.43.91-.53,1.81-1.07,2.7-1.58.45-.26.89-.52,1.33-.78.25-.14.48-.28.72-.42l-16.79-9.68,8.87-5.12,16.64,9.7,16.26-9.48,8.87,5.12-16.4,9.45,16.4,9.56,1.05.61Z"/>
    <line class="cls-2" x1="139.9" y1="94.46" x2="139.88" y2="94.44"/>
    <text class="cls-11" transform="translate(274.25 172.3)"><tspan class="cls-8" x="0" y="0">Cl</tspan><tspan class="cls-7" x="129.68" y="0">i</tspan><tspan class="cls-12" x="163.56" y="0">ck &amp; </tspan><tspan class="cls-6" x="476.84" y="0">S</tspan><tspan class="cls-9" x="560.13" y="0">w</tspan><tspan class="cls-12" x="678.29" y="0">i</tspan><tspan class="cls-5" x="714.18" y="0">t</tspan><tspan class="cls-10" x="758.41" y="0">c</tspan><tspan class="cls-12" x="829" y="0">h</tspan></text>
  </g>
</svg>